<?xml version="1.0" encoding="utf-8"?>
<!-- Generator: Adobe Illustrator 24.1.1, SVG Export Plug-In . SVG Version: 6.00 Build 0)  -->
<svg version="1.1" id="Layer_1" xmlns="http://www.w3.org/2000/svg" xmlns:xlink="http://www.w3.org/1999/xlink" x="0px" y="0px"
	 viewBox="0 0 500 500" style="enable-background:new 0 0 500 500;" xml:space="preserve">
<style type="text/css">
	.st0{fill:#BFBEBE;}
	.st1{font-family:'MCgdtk';}
	.st2{font-size:0.1px;}
	.st3{fill:none;stroke:#231F20;stroke-width:3;stroke-miterlimit:10;}
	.st4{fill:#FFFFFF;}
	.st5{fill:none;stroke:#FFFFFF;stroke-miterlimit:10;}
</style>
<g>
	<text transform="matrix(1.05 0 0 1.05 225.4178 307.2611)" class="st0 st1 st2">0</text>
	<path class="st3" d="M197.27,301.7"/>
	<path class="st4" d="M230.85,237.07c3.2,5.46,1.37,12.49-4.09,15.7c-5.46,3.21-12.49,1.38-15.7-4.08
		c-3.21-5.46-1.38-12.49,4.08-15.7C220.6,229.78,227.63,231.6,230.85,237.07z"/>
	<path class="st4" d="M202.66,258.35c3.2,5.46,1.37,12.49-4.09,15.7c-5.46,3.21-12.49,1.38-15.7-4.08
		c-3.21-5.46-1.38-12.5,4.08-15.7C192.42,251.06,199.45,252.88,202.66,258.35z"/>
	<path class="st4" d="M193.76,293.55c3.2,5.46,1.37,12.49-4.09,15.7c-5.46,3.21-12.49,1.38-15.7-4.08
		c-3.21-5.46-1.38-12.49,4.08-15.7S190.54,288.09,193.76,293.55z"/>
	<path class="st4" d="M192.39,295.29c2.24,3.82,0.96,8.74-2.86,10.99c-3.82,2.25-8.75,0.97-10.99-2.86
		c-2.25-3.82-0.96-8.75,2.86-10.99C185.22,290.19,190.14,291.47,192.39,295.29z"/>
	<g>
		<g>
			<path class="st4" d="M241.22,212.45c-66.36-15.61-80.42,42.44-84.08,54.04c-0.48,2.22-11.12,36.04,7.21,55.77
				c-29.29-25.54-12.43-69.09-12.43-69.09C172.83,196.24,236.41,211.12,241.22,212.45z"/>
		</g>
	</g>
	<g>
		<g>
			<path class="st4" d="M183.53,335.35c-8.37-2.96-15.49-6.99-21.17-11.95c-29.74-25.93-13.01-70.32-12.84-70.76
				c8.81-23.98,26.81-38.67,52.05-42.46c19.76-2.97,37.46,1.68,39.41,2.22l0.24,0.06l-0.73,2.91l-0.27-0.07
				c-1.93-0.53-19.05-5.03-38.21-2.15c-24.43,3.67-41.15,17.31-49.69,40.55c-0.17,0.45-16.14,42.9,12,67.44
				c5.4,4.72,12.2,8.55,20.2,11.39L183.53,335.35z"/>
		</g>
		<g>
			<path class="st4" d="M157.56,266.95l-2.86-0.9c0.14-0.45,0.3-0.97,0.48-1.54c2.2-7.2,7.35-24.05,20.07-37.17
				c15.93-16.42,38.03-21.46,65.67-14.96l0.3,0.07l-0.73,2.91l-0.27-0.07c-41.39-9.73-69.04,7.12-82.16,50.08
				C157.87,265.96,157.71,266.49,157.56,266.95z"/>
		</g>
		<g>
			<path class="st4" d="M241.42,354.95c-1.76,0-3.39-0.1-4.89-0.28c-13.23-1.53-19.84-8.63-20.12-8.93c-2.71-2.78-5-5.88-6.76-9.18
				c-3.15-5.82-4.75-12.47-4.75-19.77c0-27.5,22.32-55.06,23.27-56.21c21.83-29,34.54-30.06,35.83-30.09
				c3.6-0.26,5.54-0.01,7.26,0.21c0.92,0.12,1.71,0.22,2.67,0.23c0.83,0.01,1.49,0.7,1.48,1.53c-0.01,0.83-0.7,1.47-1.52,1.47
				c-1.13-0.02-2.04-0.13-3-0.25c-1.66-0.21-3.39-0.43-6.71-0.19c-0.04,0-0.09,0-0.13,0c-0.1,0-12.08,0.49-33.51,28.94
				c-0.26,0.32-22.63,27.95-22.63,54.36c0,6.79,1.48,12.96,4.4,18.35c1.63,3.06,3.75,5.93,6.3,8.55c0.09,0.1,6.31,6.7,18.51,8.03
				c11.37,1.25,30.41-1.93,56.57-24.15c0.71-0.58,2.46-2.4,2.41-4.17c-0.03-1.02-0.65-1.95-1.91-2.85
				c-0.01-0.01-0.02-0.01-0.03-0.02c-0.01,0-0.01-0.01-0.02-0.01c-0.01,0-0.01,0-0.01-0.01c-0.35-0.18-2.41-2.04-8.67-1.85
				c-0.06,0-0.11,0-0.17,0c-0.35-0.03-8.57,0.24-13.7-6.96c-4.3-6.05-5.04-14.67-2.19-25.63c0.04-0.14,0.54-1.67,1.6-3.65
				c4.8-8.99,12.21-11.81,20.33-7.72c0.74,0.37,1.21,1.49,0.84,2.23c-0.37,0.74-1.45,0.83-2.19,0.45
				c-8.39-4.23-13.51,1.18-16.33,6.46c-0.92,1.72-1.36,3.05-1.36,3.07c-2.59,9.98-2.01,17.77,1.76,23.06
				c4.09,5.75,10.67,6.62,11.42,6.7c7.55-0.22,9.89,1,10.51,1.47c2.02,1.47,3.07,3.22,3.13,5.2c0.09,3.61-3.35,6.43-3.5,6.55
				C271.91,350,253.65,354.95,241.42,354.95z"/>
		</g>
		<g>
			<path class="st4" d="M198.56,337.49c-5.93,0-12.08-1.03-18.36-3.07c-7.41-2.42-13.49-6.17-18.08-11.14
				c-15.41-16.58-11.48-42.43-7.76-56.36c0.1-0.36,0.16-0.61,0.19-0.74l2.93,0.63c-0.03,0.16-0.11,0.45-0.22,0.88
				c-3.56,13.33-7.37,38.02,7.07,53.55c4.24,4.59,9.89,8.07,16.81,10.33c9.55,3.11,18.71,3.74,27.25,1.88
				c6.8-1.47,13.33-4.52,19.96-9.32c1.06-0.91,22.04-19.12,34.48-44.2c6.88-13.87,9.95-27.32,9.12-39.97l0,0c0,0-0.45-3.6-2.47-7.93
				l2.72-1.27c2.25,4.82,2.72,8.76,2.74,8.93c0.88,13.25-2.29,27.22-9.41,41.57c-12.99,26.18-35.05,45.01-35.27,45.19l-0.09,0.07
				c-7,5.08-13.91,8.3-21.14,9.86C205.61,337.13,202.12,337.49,198.56,337.49z"/>
		</g>
	</g>
	<path class="st4" d="M187.66,291.09c0,1.05-0.85,1.9-1.9,1.9c-1.05,0-1.9-0.85-1.9-1.9c0-1.05,0.85-1.9,1.9-1.9
		C186.81,289.19,187.66,290.04,187.66,291.09z"/>
	<path class="st4" d="M200.78,261.4c2.24,3.82,0.96,8.74-2.86,10.99c-3.82,2.24-8.75,0.97-10.99-2.86
		c-2.25-3.82-0.97-8.75,2.86-10.99C193.61,256.29,198.53,257.57,200.78,261.4z"/>
	<path class="st4" d="M195.6,256.25c0,1.05-0.85,1.9-1.9,1.9c-1.05,0-1.9-0.85-1.9-1.9c0-1.05,0.85-1.9,1.9-1.9
		C194.75,254.35,195.6,255.2,195.6,256.25z"/>
	<path class="st4" d="M229.04,239.85c2.24,3.82,0.96,8.74-2.86,10.99c-3.82,2.25-8.75,0.97-10.99-2.86
		c-2.25-3.82-0.96-8.75,2.86-10.99C221.87,234.74,226.79,236.02,229.04,239.85z"/>
	<path class="st4" d="M224.01,235.88c0,1.05-0.85,1.9-1.9,1.9c-1.05,0-1.9-0.85-1.9-1.9c0-1.05,0.85-1.9,1.9-1.9
		C223.16,233.98,224.01,234.83,224.01,235.88z"/>
	<path class="st4" d="M305.94,201.31"/>
	<g>
		<path class="st4" d="M300.03,190.05c0,0-0.17-0.55,0.57,0.05c0,0,1.22,1.57,0.71,1.37C300.81,191.28,300.03,190.05,300.03,190.05z
			"/>
	</g>
	<path class="st4" d="M291.26,277.58c0,0-11.06-0.44-12.71,9.22c0,0-2.47,5.94-0.92,16.04c0.78,5.05,5.09,8.49,5.09,8.49
		s6.76,6.5,11.68,6.28c1.98-0.09-26.11,2.59-24.44-15.15C269.96,302.46,265.36,267.08,291.26,277.58z"/>
	<path class="st5" d="M246.64,240.69c0,0,9.37,14.31,27.5,13.66"/>
	<path class="st5" d="M250.14,237.78c0,0,12.12,11.78,24,12.41"/>
	<g>
		<path class="st4" d="M280.76,237.71c-4.64,1.15-2.37,0.83-6.99,1.34l-3.95-3.25l-3.22-2.39c-3.1-10.57-0.06-26.74,7.53-34.73
			c0.79-0.99,8.52-10.19,22.27-10.81c6.84-0.3,14.03,1.61,21.33,5.69l4.77,2.65l-5.45,0.42c-0.08,0-7.46,0.65-8.57,5.39
			c0.2,2.82,0.32,24.77-18.15,32.08l0,0C287.35,235.49,285.74,236.31,280.76,237.71z M272.26,219.21c0.64,1.79,1.27,4.75,4.76,6.93
			c5.47,3.43,13.26,3.27,13.59,3.25c17.08-1.18,14.68-26.36,14.59-27.32l-0.03-0.24l0.04-0.23c-0.69-7.68,4.05-6.12,6.92-7.18
			c-5.37-2.39-10.6-3.49-15.59-3.26c-12.71,0.57-19.8,9.51-19.88,9.6l-0.11,0.13C275.33,202.7,270.37,209.43,272.26,219.21z"/>
	</g>
</g>
</svg>
