<svg id="Layer_1" data-name="Layer 1" xmlns="http://www.w3.org/2000/svg" viewBox="0 0 202.17 192.03"><defs><style>.cls-1{fill:#05aca3;}.cls-2{fill:#f5c017;}.cls-3{fill:#e61b53;}.cls-4{fill:#e96086;}.cls-5{fill:#231f20;}.cls-6{fill:#fff;}.cls-7{fill:#f7d360;}.cls-8{fill:#80cfd7;}.cls-9{fill:none;stroke:#231f20;stroke-miterlimit:10;stroke-width:3px;}.cls-10{fill:#232020;}</style></defs><path class="cls-1" d="M260.63,204a13.85,13.85,0,1,1-19-4.93A13.86,13.86,0,0,1,260.63,204Z" transform="translate(-156.61 -154.24)"/><path class="cls-2" d="M226.61,229.67a13.85,13.85,0,1,1-19-4.93A13.85,13.85,0,0,1,226.61,229.67Z" transform="translate(-156.61 -154.24)"/><path class="cls-3" d="M215.86,272.16a13.85,13.85,0,1,1-19-4.93A13.85,13.85,0,0,1,215.86,272.16Z" transform="translate(-156.61 -154.24)"/><path class="cls-4" d="M214.21,274.27a9.69,9.69,0,1,1-13.27-3.45A9.69,9.69,0,0,1,214.21,274.27Z" transform="translate(-156.61 -154.24)"/><path class="cls-5" d="M273.15,174.27C193,155.43,176.07,225.5,171.65,239.5c-.58,2.68-13.42,43.51,8.7,67.32-35.35-30.83-15-83.4-15-83.4C190.6,154.7,267.35,172.67,273.15,174.27Z" transform="translate(-156.61 -154.24)"/><path class="cls-5" d="M203.51,322.61A78.22,78.22,0,0,1,178,308.18c-35.9-31.3-15.71-84.87-15.5-85.41,10.63-28.94,32.36-46.68,62.82-51.25,23.86-3.58,45.22,2,47.58,2.68l.29.07-.89,3.51-.32-.08c-2.33-.64-23-6.07-46.12-2.6-29.49,4.43-49.67,20.9-60,49-.21.54-19.48,51.79,14.49,81.4a74.72,74.72,0,0,0,24.38,13.75Z" transform="translate(-156.61 -154.24)"/><path class="cls-5" d="M172.17,240.05,168.72,239c.17-.55.36-1.17.57-1.87,2.66-8.69,8.87-29,24.23-44.86,19.23-19.82,45.9-25.9,79.27-18l.36.09-.89,3.51-.33-.08c-50-11.75-83.33,8.59-99.17,60.45C172.54,238.86,172.35,239.49,172.17,240.05Z" transform="translate(-156.61 -154.24)"/><path class="cls-5" d="M273.4,346.28a51.46,51.46,0,0,1-5.91-.34c-16-1.84-24-10.41-24.28-10.77a48.86,48.86,0,0,1-8.16-11.09,49.49,49.49,0,0,1-5.74-23.86c0-33.19,26.94-66.46,28.09-67.86,26.35-35,41.7-36.28,43.25-36.32a39,39,0,0,1,8.76.25,28.11,28.11,0,0,0,3.23.28,1.81,1.81,0,1,1-.06,3.62,32.29,32.29,0,0,1-3.62-.3,35,35,0,0,0-8.1-.23h-.16c-.12,0-14.59.59-40.45,34.94-.32.39-27.32,33.73-27.32,65.62a44.86,44.86,0,0,0,12.91,32.46c.11.12,7.62,8.08,22.34,9.7,13.73,1.5,36.71-2.33,68.28-29.15.86-.7,3-2.9,2.92-5,0-1.23-.79-2.36-2.31-3.45l0,0,0,0s0,0,0,0c-.42-.22-2.9-2.46-10.46-2.23h-.2c-.42,0-10.35.29-16.53-8.4-5.19-7.3-6.08-17.71-2.65-30.93a27.85,27.85,0,0,1,1.93-4.41c5.8-10.86,14.74-14.25,24.53-9.33a2.21,2.21,0,0,1,1,2.69,2,2,0,0,1-2.64.55c-10.13-5.1-16.31,1.43-19.72,7.8a26,26,0,0,0-1.64,3.7c-3.13,12.05-2.42,21.45,2.12,27.83a20.62,20.62,0,0,0,13.79,8.09c9.11-.26,11.94,1.2,12.68,1.78,2.44,1.77,3.71,3.88,3.77,6.27.12,4.36-4,7.77-4.22,7.91C310.19,340.29,288.16,346.28,273.4,346.28Z" transform="translate(-156.61 -154.24)"/><path class="cls-5" d="M221.65,325.2a71.6,71.6,0,0,1-22.17-3.71c-8.94-2.92-16.27-7.45-21.81-13.44-18.61-20-13.86-51.22-9.38-68,.12-.43.2-.73.24-.89l3.53.76c0,.19-.13.55-.27,1.06-4.29,16.1-8.89,45.9,8.53,64.65,5.12,5.54,12,9.73,20.29,12.46,11.52,3.75,22.59,4.52,32.89,2.27,8.2-1.77,16.08-5.45,24.09-11.25,1.28-1.1,26.61-23.08,41.63-53.36,8.31-16.74,12-33,11-48.24h0a36,36,0,0,0-3-9.58l3.28-1.53a38.9,38.9,0,0,1,3.31,10.78c1.06,16-2.77,32.85-11.37,50.18-15.67,31.6-42.31,54.33-42.58,54.55l-.1.09c-8.45,6.12-16.79,10-25.52,11.9A58.68,58.68,0,0,1,221.65,325.2Z" transform="translate(-156.61 -154.24)"/><path class="cls-6" d="M208.5,269.19a2.3,2.3,0,1,1-2.29-2.3A2.29,2.29,0,0,1,208.5,269.19Z" transform="translate(-156.61 -154.24)"/><path class="cls-7" d="M224.34,233.35a9.69,9.69,0,1,1-13.27-3.45A9.7,9.7,0,0,1,224.34,233.35Z" transform="translate(-156.61 -154.24)"/><path class="cls-6" d="M218.08,227.14a2.3,2.3,0,1,1-2.29-2.3A2.29,2.29,0,0,1,218.08,227.14Z" transform="translate(-156.61 -154.24)"/><path class="cls-8" d="M258.45,207.34a9.69,9.69,0,1,1-13.28-3.45A9.7,9.7,0,0,1,258.45,207.34Z" transform="translate(-156.61 -154.24)"/><path class="cls-6" d="M252.38,202.55a2.3,2.3,0,1,1-2.3-2.3A2.3,2.3,0,0,1,252.38,202.55Z" transform="translate(-156.61 -154.24)"/><text x="-156.61" y="-154.24"/><path class="cls-5" d="M351.27,160.82" transform="translate(-156.61 -154.24)"/><path d="M333.55,252.88S320.2,252.35,318.2,264c0,0-3,7.17-1.1,19.36.94,6.09,6.14,10.25,6.14,10.25s8.16,7.84,14.1,7.58c2.39-.1-31.51,3.13-29.5-18.29C307.84,282.91,302.28,240.2,333.55,252.88Z" transform="translate(-156.61 -154.24)"/><path class="cls-9" d="M279.69,208.36s11.31,17.27,33.19,16.48" transform="translate(-156.61 -154.24)"/><path class="cls-9" d="M283.91,204.85s14.64,14.22,29,15" transform="translate(-156.61 -154.24)"/><path class="cls-10" d="M317,204.11c-4.64,1.15-2.37.83-7,1.34l-3.95-3.24-3.22-2.4c-3.1-10.57-.06-26.74,7.53-34.73a31.44,31.44,0,0,1,22.27-10.81c6.84-.3,14,1.61,21.33,5.69l4.78,2.66-5.45.42c-.08,0-7.46.64-8.57,5.39.19,2.81.32,24.77-18.16,32.07h0A49.78,49.78,0,0,1,317,204.11Zm-8.5-18.49c.64,1.78,1.26,4.74,4.75,6.93,5.47,3.43,13.27,3.28,13.6,3.25,17.08-1.18,14.67-26.37,14.59-27.32l0-.24,0-.23c-.68-7.68,4.06-6.13,6.93-7.19a34.41,34.41,0,0,0-15.59-3.26,28.36,28.36,0,0,0-19.88,9.6l-.11.14A23.36,23.36,0,0,0,308.54,185.62Z" transform="translate(-156.61 -154.24)"/></svg>