<?xml version="1.0" encoding="utf-8"?>
<!-- Generator: Adobe Illustrator 24.1.1, SVG Export Plug-In . SVG Version: 6.00 Build 0)  -->
<svg version="1.1" id="Layer_1" xmlns="http://www.w3.org/2000/svg" xmlns:xlink="http://www.w3.org/1999/xlink" x="0px" y="0px"
	 viewBox="0 0 500 500" style="enable-background:new 0 0 500 500;" xml:space="preserve">
<style type="text/css">
	.st0{fill:#05ACA3;}
	.st1{fill:#F5C017;}
	.st2{fill:#E61B53;}
	.st3{fill:#E96086;}
	.st4{fill:#231F20;}
	.st5{fill:#FFFFFF;}
	.st6{fill:#F7D360;}
	.st7{fill:#80CFD7;}
	.st8{fill:none;stroke:#231F20;stroke-width:3;stroke-miterlimit:10;}
	.st9{fill:#232020;}
	.st10{fill:#333333;}
	.st11{font-family:'Arita-dotum-Bold_TTF';}
	.st12{font-size:30px;}
	.st13{font-family:'Arita-dotum-Light_TTF';}
	.st14{font-size:20px;}
</style>
<path class="st0" d="M142.63,214.98c3.87,6.59,1.66,15.08-4.93,18.95c-6.59,3.87-15.08,1.67-18.95-4.93
	c-3.88-6.6-1.67-15.08,4.93-18.95C130.26,206.18,138.75,208.38,142.63,214.98z"/>
<path class="st1" d="M108.61,240.67c3.87,6.59,1.66,15.08-4.93,18.95c-6.59,3.87-15.08,1.67-18.95-4.92
	c-3.88-6.6-1.66-15.08,4.93-18.95C96.24,231.87,104.73,234.07,108.61,240.67z"/>
<path class="st2" d="M97.86,283.16c3.86,6.59,1.65,15.08-4.93,18.95c-6.59,3.87-15.08,1.67-18.95-4.92
	c-3.88-6.59-1.66-15.08,4.93-18.95C85.49,274.36,93.98,276.56,97.86,283.16z"/>
<path class="st3" d="M96.21,285.27c2.71,4.61,1.16,10.55-3.45,13.27c-4.61,2.71-10.56,1.17-13.27-3.45
	c-2.71-4.62-1.16-10.56,3.45-13.27C87.56,279.11,93.49,280.65,96.21,285.27z"/>
<g id="XMLID_4_">
	<g>
		<g>
			<path class="st4" d="M155.15,185.27C75.04,166.43,58.07,236.5,53.65,250.5c-0.58,2.68-13.43,43.51,8.7,67.32
				c-35.36-30.83-15-83.39-15-83.39C72.6,165.7,149.35,183.67,155.15,185.27z"/>
		</g>
	</g>
	<g>
		<g>
			<path class="st4" d="M85.51,333.61c-10.1-3.58-18.7-8.43-25.56-14.43c-35.9-31.3-15.7-84.87-15.5-85.41
				c10.63-28.94,32.36-46.68,62.82-51.25c23.85-3.58,45.21,2.03,47.57,2.68l0.29,0.07l-0.88,3.51l-0.33-0.08
				c-2.33-0.64-23-6.07-46.12-2.6c-29.49,4.43-49.67,20.9-59.97,48.95c-0.21,0.54-19.48,51.79,14.49,81.4
				c6.52,5.7,14.72,10.32,24.39,13.75L85.51,333.61z"/>
		</g>
		<g>
			<path class="st4" d="M54.17,251.05l-3.45-1.09c0.17-0.54,0.36-1.17,0.58-1.87c2.65-8.69,8.87-29.03,24.23-44.86
				c19.23-19.83,45.9-25.9,79.27-18.05l0.36,0.09l-0.88,3.51l-0.33-0.08c-49.96-11.75-83.33,8.59-99.18,60.45
				C54.54,249.86,54.35,250.49,54.17,251.05z"/>
		</g>
		<g>
			<path class="st4" d="M155.4,357.28c-2.12,0-4.09-0.12-5.9-0.33c-15.96-1.84-23.95-10.41-24.29-10.78
				c-3.27-3.36-6.03-7.1-8.16-11.09c-3.81-7.03-5.74-15.06-5.74-23.86c0-33.19,26.94-66.46,28.09-67.86
				c26.36-35,41.7-36.28,43.25-36.32c4.34-0.31,6.69-0.01,8.77,0.25c1.1,0.14,2.06,0.26,3.22,0.28c1,0.02,1.8,0.84,1.78,1.84
				c-0.02,1-0.85,1.78-1.84,1.78c-1.36-0.02-2.46-0.16-3.62-0.31c-2.01-0.25-4.09-0.52-8.1-0.23c-0.05,0-0.11,0-0.16,0
				c-0.12,0-14.59,0.59-40.45,34.93c-0.32,0.39-27.31,33.73-27.31,65.62c0,8.2,1.79,15.65,5.31,22.15c1.97,3.69,4.53,7.16,7.6,10.32
				c0.11,0.12,7.61,8.08,22.34,9.7c13.73,1.51,36.71-2.33,68.28-29.15c0.85-0.7,2.98-2.9,2.91-5.03c-0.04-1.23-0.79-2.35-2.3-3.45
				c-0.01-0.01-0.02-0.02-0.03-0.02c-0.01,0-0.02-0.01-0.03-0.02c-0.01,0-0.01,0-0.02-0.01c-0.42-0.21-2.91-2.46-10.46-2.23
				c-0.07,0-0.13,0-0.2,0c-0.42-0.03-10.35,0.29-16.53-8.4c-5.19-7.3-6.08-17.71-2.65-30.94c0.05-0.17,0.65-2.02,1.93-4.41
				c5.8-10.86,14.74-14.25,24.53-9.32c0.89,0.45,1.46,1.79,1.01,2.69c-0.45,0.9-1.75,1-2.64,0.55c-10.13-5.1-16.31,1.43-19.71,7.8
				c-1.11,2.07-1.64,3.69-1.64,3.7c-3.13,12.05-2.42,21.44,2.12,27.83c4.93,6.94,12.88,7.99,13.79,8.09
				c9.11-0.26,11.94,1.2,12.69,1.78c2.44,1.77,3.71,3.88,3.77,6.27c0.12,4.36-4.05,7.77-4.22,7.91
				C192.19,351.29,170.16,357.28,155.4,357.28z"/>
		</g>
		<g>
			<path class="st4" d="M103.65,336.2c-7.16,0-14.58-1.24-22.17-3.71c-8.94-2.93-16.28-7.45-21.82-13.45
				c-18.6-20.02-13.86-51.22-9.37-68.04c0.12-0.43,0.2-0.73,0.23-0.89l3.54,0.77c-0.04,0.19-0.13,0.55-0.27,1.06
				c-4.29,16.09-8.89,45.89,8.53,64.64c5.12,5.54,11.94,9.74,20.29,12.47c11.52,3.75,22.59,4.52,32.89,2.27
				c8.2-1.77,16.09-5.45,24.1-11.26c1.28-1.09,26.6-23.08,41.62-53.36c8.31-16.75,12.01-32.98,11-48.24l0,0c0,0-0.55-4.35-2.98-9.57
				l3.28-1.53c2.71,5.82,3.28,10.58,3.31,10.78c1.06,16-2.77,32.85-11.36,50.18c-15.67,31.6-42.31,54.33-42.58,54.55l-0.1,0.08
				c-8.45,6.13-16.79,10.02-25.52,11.91C112.16,335.76,107.95,336.2,103.65,336.2z"/>
		</g>
	</g>
</g>
<path class="st5" d="M90.5,280.19c0,1.27-1.03,2.3-2.29,2.3c-1.27,0-2.29-1.03-2.29-2.3c0-1.27,1.03-2.3,2.29-2.3
	C89.48,277.89,90.5,278.92,90.5,280.19z"/>
<path class="st6" d="M106.34,244.35c2.71,4.61,1.16,10.56-3.45,13.27c-4.62,2.71-10.56,1.17-13.27-3.45
	c-2.71-4.62-1.17-10.56,3.45-13.27C97.68,238.19,103.62,239.73,106.34,244.35z"/>
<path class="st5" d="M100.08,238.14c0,1.27-1.03,2.3-2.3,2.3c-1.27,0-2.29-1.03-2.29-2.3c0-1.27,1.03-2.3,2.29-2.3
	C99.06,235.84,100.08,236.87,100.08,238.14z"/>
<path class="st7" d="M140.45,218.34c2.7,4.62,1.16,10.56-3.46,13.27c-4.62,2.71-10.56,1.17-13.27-3.45
	c-2.71-4.62-1.16-10.56,3.45-13.27C131.79,212.18,137.73,213.72,140.45,218.34z"/>
<path class="st5" d="M134.38,213.55c0,1.27-1.03,2.29-2.3,2.29c-1.27,0-2.29-1.03-2.29-2.29c0-1.27,1.03-2.3,2.29-2.3
	C133.35,211.25,134.38,212.28,134.38,213.55z"/>
<path class="st4" d="M233.27,171.82"/>
<path d="M215.55,263.88c0,0-13.35-0.53-15.35,11.13c0,0-2.98,7.17-1.11,19.36c0.94,6.09,6.14,10.25,6.14,10.25s8.16,7.84,14.1,7.58
	c2.39-0.1-31.51,3.13-29.5-18.29C189.84,293.91,184.28,251.2,215.55,263.88z"/>
<path class="st8" d="M161.69,219.36c0,0,11.32,17.28,33.19,16.48"/>
<path class="st8" d="M165.91,215.85c0,0,14.64,14.22,28.97,14.98"/>
<g>
	<path class="st9" d="M199.04,215.11c-4.64,1.15-2.37,0.83-6.99,1.34l-3.95-3.25l-3.22-2.39c-3.1-10.57-0.06-26.74,7.53-34.73
		c0.79-0.99,8.52-10.18,22.27-10.81c6.84-0.3,14.03,1.61,21.33,5.69l4.77,2.65l-5.45,0.42c-0.08,0-7.46,0.65-8.57,5.39
		c0.2,2.82,0.32,24.77-18.15,32.08l0,0C205.62,212.89,204.01,213.71,199.04,215.11z M190.54,196.62c0.64,1.78,1.26,4.75,4.76,6.93
		c5.47,3.43,13.26,3.27,13.59,3.24c17.08-1.18,14.68-26.36,14.59-27.32l-0.03-0.24l0.04-0.23c-0.69-7.68,4.06-6.12,6.92-7.18
		c-5.37-2.39-10.6-3.49-15.59-3.27c-12.71,0.57-19.8,9.51-19.87,9.6l-0.11,0.13C193.6,180.11,188.64,186.84,190.54,196.62z"/>
</g>
<text transform="matrix(1.15 0 0 1.05 245.7339 257.2812)" class="st10 st11 st12">C&amp;C미술학원</text>
<text transform="matrix(1.05 0 0 1.05 245.7339 305.2812)" class="st10 st13 st14">creative&amp;</text>
<text transform="matrix(1.05 0 0 1.05 245.7339 329.2812)" class="st10 st13 st14">communication</text>
</svg>
